<svg width="30" height="30" viewBox="0 0 30 30" fill="none" xmlns="http://www.w3.org/2000/svg">
<rect width="30" height="30" rx="15" fill="#1A43EF"/>
<path fill-rule="evenodd" clip-rule="evenodd" d="M19.8894 12.201C19.6152 12.1675 19.3351 12.1501 19.0503 12.1501C15.7366 12.1501 13.0503 14.5006 13.0503 17.4001C13.0503 17.9593 13.1503 18.4982 13.3354 19.0037L13.3222 19.0037C12.3218 19.0037 11.3724 18.8215 10.5192 18.4949L8.70032 19.5001L9.23853 17.8518C7.63458 16.8281 6.60022 15.2157 6.60022 13.402C6.60022 10.3083 9.60976 7.80029 13.3222 7.80029C16.54 7.80029 19.2297 9.68442 19.8894 12.201ZM11.1003 12.1501C10.5204 12.1501 10.0503 11.68 10.0503 11.1001C10.0503 10.5202 10.5204 10.0501 11.1003 10.0501C11.6802 10.0501 12.1503 10.5202 12.1503 11.1001C12.1503 11.68 11.6802 12.1501 11.1003 12.1501ZM14.5503 11.1001C14.5503 11.68 15.0204 12.1501 15.6003 12.1501C16.1802 12.1501 16.6503 11.68 16.6503 11.1001C16.6503 10.5202 16.1802 10.0501 15.6003 10.0501C15.0204 10.0501 14.5503 10.5202 14.5503 11.1001ZM24.6003 17.4543C24.6003 18.937 23.7653 20.255 22.471 21.0909L22.9301 22.8355L21.1689 21.7124C20.5546 21.9168 19.8855 22.029 19.1854 22.029C16.1948 22.029 13.7704 19.9808 13.7704 17.4543C13.7704 14.9278 16.1948 12.8796 19.1854 12.8796C22.176 12.8796 24.6003 14.9278 24.6003 17.4543ZM20.7909 16.9169C20.2939 16.9169 19.8909 16.514 19.8909 16.0169C19.8909 15.5198 20.2939 15.1169 20.7909 15.1169C21.288 15.1169 21.6909 15.5198 21.6909 16.0169C21.6909 16.514 21.288 16.9169 20.7909 16.9169ZM16.4553 16.0169C16.4553 16.514 16.8582 16.9169 17.3553 16.9169C17.8524 16.9169 18.2553 16.514 18.2553 16.0169C18.2553 15.5198 17.8524 15.1169 17.3553 15.1169C16.8582 15.1169 16.4553 15.5198 16.4553 16.0169Z" fill="white"/>
</svg>
