<svg width="50" height="50" viewBox="0 0 50 50" fill="none" xmlns="http://www.w3.org/2000/svg">
<rect width="50" height="50" rx="25" fill="#1A43EF"/>
<path fill-rule="evenodd" clip-rule="evenodd" d="M38.5416 24.9998C38.5416 32.4787 32.4788 38.5415 25 38.5415C22.1167 38.5415 19.4439 37.6404 17.2478 36.1044L11.458 38.542L13.7626 32.5587C12.3076 30.3999 11.4583 27.799 11.4583 24.9998C11.4583 17.5209 17.5211 11.4581 25 11.4581C32.4788 11.4581 38.5416 17.5209 38.5416 24.9998ZM31.7551 28.3647V30.4073C31.7559 30.5969 31.717 30.7846 31.641 30.9584C31.5651 31.1321 31.4537 31.2881 31.3139 31.4163C31.1742 31.5445 31.0092 31.6421 30.8296 31.7028C30.65 31.7636 30.4596 31.7861 30.2708 31.7691C28.1756 31.5414 26.1631 30.8255 24.3949 29.6788C22.7498 28.6334 21.355 27.2386 20.3096 25.5935C19.159 23.8173 18.4429 21.795 18.2194 19.6904C18.2023 19.5021 18.2247 19.3123 18.2851 19.1332C18.3454 18.954 18.4424 18.7894 18.5699 18.6498C18.6973 18.5101 18.8524 18.3986 19.0254 18.3222C19.1983 18.2458 19.3852 18.2063 19.5743 18.2061H21.6169C21.9473 18.2028 22.2677 18.3198 22.5182 18.5353C22.7688 18.7508 22.9324 19.05 22.9787 19.3772C23.0649 20.0309 23.2248 20.6727 23.4553 21.2904C23.5469 21.5341 23.5667 21.799 23.5124 22.0536C23.4581 22.3082 23.3319 22.5419 23.1489 22.7271L22.2842 23.5918C23.2534 25.2964 24.6648 26.7078 26.3694 27.677L27.2341 26.8123C27.4192 26.6292 27.6529 26.5031 27.9076 26.4488C28.1622 26.3945 28.427 26.4143 28.6707 26.5059C29.2885 26.7364 29.9303 26.8963 30.584 26.9825C30.9147 27.0292 31.2168 27.1958 31.4327 27.4506C31.6486 27.7055 31.7634 28.0308 31.7551 28.3647Z" fill="white"/>
</svg>
