<svg width="50" height="50" viewBox="0 0 50 50" fill="none" xmlns="http://www.w3.org/2000/svg">
<rect width="50" height="50" rx="25" fill="#1A43EF"/>
<path fill-rule="evenodd" clip-rule="evenodd" d="M33.1489 20.3347C32.6919 20.2787 32.2251 20.2498 31.7505 20.2498C26.2277 20.2498 21.7505 24.1673 21.7505 28.9998C21.7505 29.9319 21.9171 30.8299 22.2256 31.6724L22.2037 31.6724C20.5363 31.6724 18.954 31.3689 17.532 30.8245L14.5005 32.4998L15.3975 29.7527C12.7243 28.0464 11.0003 25.3591 11.0003 22.3363C11.0003 17.1801 16.0162 13.0001 22.2037 13.0001C27.5666 13.0001 32.0494 16.1403 33.1489 20.3347ZM18.5005 20.2498C17.534 20.2498 16.7505 19.4663 16.7505 18.4998C16.7505 17.5333 17.534 16.7498 18.5005 16.7498C19.467 16.7498 20.2505 17.5333 20.2505 18.4998C20.2505 19.4663 19.467 20.2498 18.5005 20.2498ZM24.2505 18.4998C24.2505 19.4663 25.034 20.2498 26.0005 20.2498C26.967 20.2498 27.7505 19.4663 27.7505 18.4998C27.7505 17.5333 26.967 16.7498 26.0005 16.7498C25.034 16.7498 24.2505 17.5333 24.2505 18.4998ZM41.0005 29.0901C41.0005 31.5614 39.6089 33.758 37.4516 35.1512L38.2168 38.0589L35.2814 36.1869C34.2577 36.5276 33.1425 36.7147 31.9756 36.7147C26.9913 36.7147 22.9507 33.301 22.9507 29.0901C22.9507 24.8792 26.9913 21.4656 31.9756 21.4656C36.9599 21.4656 41.0005 24.8792 41.0005 29.0901ZM34.6515 28.1945C33.8231 28.1945 33.1515 27.5229 33.1515 26.6945C33.1515 25.866 33.8231 25.1945 34.6515 25.1945C35.48 25.1945 36.1515 25.866 36.1515 26.6945C36.1515 27.5229 35.48 28.1945 34.6515 28.1945ZM27.4255 26.6945C27.4255 27.5229 28.097 28.1945 28.9255 28.1945C29.7539 28.1945 30.4255 27.5229 30.4255 26.6945C30.4255 25.866 29.7539 25.1945 28.9255 25.1945C28.097 25.1945 27.4255 25.866 27.4255 26.6945Z" fill="white"/>
</svg>
