<svg width="50.000000" height="50.000000" viewBox="0 0 50 50" fill="none" xmlns="http://www.w3.org/2000/svg" xmlns:xlink="http://www.w3.org/1999/xlink">
	<desc>
			Created with Pixso.
	</desc>
	<defs/>
	<rect rx="25.000000" width="50.000000" height="50.000000" fill="#1A43EF" fill-opacity="1.000000"/>
	<path d="M24.9999 11.458C17.521 11.458 11.4583 17.5208 11.4583 24.9998C11.4583 27.7988 12.3076 30.3999 13.7626 32.5586L11.458 38.5417L17.2477 36.1042C19.4438 37.6401 22.1166 38.5413 24.9999 38.5413C32.4788 38.5413 38.5415 32.4785 38.5415 24.9998C38.5415 17.5208 32.4788 11.458 24.9999 11.458ZM31.755 30.4072L31.755 28.3645C31.7633 28.0308 31.6486 27.7053 31.4326 27.4504C31.2167 27.1956 30.9147 27.0291 30.5839 26.9824C29.9302 26.8962 29.2883 26.7363 28.6707 26.5059C28.427 26.4141 28.1621 26.3943 27.9075 26.4487C27.6528 26.5029 27.4191 26.6292 27.234 26.8123L26.3693 27.677C24.6647 26.7075 23.2533 25.2961 22.2841 23.5916L23.1488 22.7271C23.3318 22.5417 23.458 22.3081 23.5123 22.0535C23.5667 21.7988 23.5468 21.5339 23.4552 21.2903C23.2246 20.6726 23.0648 20.0308 22.9785 19.377C22.9324 19.0498 22.7687 18.7507 22.5182 18.5352C22.2676 18.3198 21.9473 18.2026 21.6168 18.2061L19.5742 18.2061C19.3851 18.2061 19.1982 18.2456 19.0253 18.322C18.8523 18.3984 18.6973 18.51 18.5697 18.6497C18.4423 18.7893 18.3453 18.9539 18.285 19.1331C18.2246 19.3123 18.2023 19.502 18.2192 19.6902C18.4427 21.7949 19.1588 23.8171 20.3096 25.5935C21.3549 27.2385 22.7496 28.6333 24.3948 29.6787C26.163 30.8254 28.1755 31.5413 30.2708 31.769C30.4596 31.7859 30.6499 31.7634 30.8295 31.7026C31.0092 31.6418 31.1741 31.5444 31.3138 31.4163C31.4536 31.2878 31.5649 31.1321 31.641 30.9583C31.7169 30.7844 31.7557 30.5969 31.755 30.4072Z" clip-rule="evenodd" fill="#FFFFFF" fill-opacity="1.000000" fill-rule="evenodd"/>
</svg>
