<svg width="50.000000" height="50.000000" viewBox="0 0 50 50" fill="none" xmlns="http://www.w3.org/2000/svg" xmlns:xlink="http://www.w3.org/1999/xlink">
	<desc>
			Created with Pixso.
	</desc>
	<defs>
		<clipPath id="clip173_654">
			<rect id="wecaht" rx="25.000000" width="50.000000" height="50.000000" fill="white" fill-opacity="0"/>
		</clipPath>
	</defs>
	<rect id="wecaht" rx="25.000000" width="50.000000" height="50.000000" fill="#1A43EF" fill-opacity="1.000000"/>
	<g clip-path="url(#clip173_654)">
		<path id="wechat" d="M11.0002 22.3354C11.0002 17.1797 16.0161 12.9995 22.2036 12.9995C27.5665 12.9995 32.0493 16.1396 33.1488 20.334C32.6919 20.2783 32.225 20.249 31.7504 20.249C26.2275 20.249 21.7504 24.1665 21.7504 28.999C21.7504 29.9312 21.917 30.8291 22.2255 31.6719L22.2036 31.6719C20.5363 31.6719 18.9541 31.3682 17.5322 30.8242L14.5005 32.4995L15.3976 29.752C12.7242 28.0459 11.0002 25.3584 11.0002 22.3354ZM18.5005 16.7495C19.4669 16.7495 20.2505 17.5332 20.2505 18.4995C20.2505 19.4663 19.4669 20.2495 18.5005 20.2495C17.5339 20.2495 16.7505 19.4663 16.7505 18.4995C16.7505 17.5332 17.5339 16.7495 18.5005 16.7495ZM26.0005 16.7495C26.9669 16.7495 27.7505 17.5332 27.7505 18.4995C27.7505 19.4663 26.9669 20.2495 26.0005 20.2495C25.0339 20.2495 24.2505 19.4663 24.2505 18.4995C24.2505 17.5332 25.0339 16.7495 26.0005 16.7495ZM22.9508 29.0898C22.9508 24.8789 26.9913 21.4653 31.9756 21.4653C36.96 21.4653 41.0005 24.8789 41.0005 29.0898C41.0005 31.561 39.6089 33.7578 37.4517 35.1514L38.2169 38.0586L35.2815 36.187C34.2577 36.5273 33.1426 36.7144 31.9756 36.7144C26.9913 36.7144 22.9508 33.3008 22.9508 29.0898ZM30.4255 26.6948C30.4255 25.8662 29.7539 25.1948 28.9255 25.1948C28.097 25.1948 27.4255 25.8662 27.4255 26.6948C27.4255 27.5229 28.097 28.1948 28.9255 28.1948C29.7539 28.1948 30.4255 27.5229 30.4255 26.6948ZM36.1516 26.6948C36.1516 25.8662 35.48 25.1948 34.6516 25.1948C33.8231 25.1948 33.1516 25.8662 33.1516 26.6948C33.1516 27.5229 33.8231 28.1948 34.6516 28.1948C35.48 28.1948 36.1516 27.5229 36.1516 26.6948Z" clip-rule="evenodd" fill="#FFFFFF" fill-opacity="1.000000" fill-rule="evenodd"/>
	</g>
</svg>
