<svg width="18" height="18" viewBox="0 0 18 18" fill="none" xmlns="http://www.w3.org/2000/svg">
<path d="M2.88764 6.46532C2.77818 5.97221 2.79498 5.45945 2.93651 4.97457C3.07804 4.48969 3.33971 4.0484 3.69725 3.69161C4.05479 3.33482 4.49663 3.07408 4.9818 2.93356C5.46697 2.79305 5.97977 2.77732 6.47264 2.88782C6.74393 2.46354 7.11765 2.11439 7.55936 1.87253C8.00107 1.63068 8.49656 1.50391 9.00014 1.50391C9.50373 1.50391 9.99922 1.63068 10.4409 1.87253C10.8826 2.11439 11.2564 2.46354 11.5276 2.88782C12.0213 2.77684 12.5349 2.7925 13.0209 2.93335C13.5068 3.07421 13.9493 3.33567 14.307 3.69343C14.6648 4.05119 14.9263 4.49362 15.0671 4.97957C15.208 5.46552 15.2236 5.97919 15.1126 6.47282C15.5369 6.7441 15.8861 7.11782 16.1279 7.55953C16.3698 8.00124 16.4966 8.49673 16.4966 9.00032C16.4966 9.50391 16.3698 9.99939 16.1279 10.4411C15.8861 10.8828 15.5369 11.2565 15.1126 11.5278C15.2231 12.0207 15.2074 12.5335 15.0669 13.0187C14.9264 13.5038 14.6656 13.9457 14.3089 14.3032C13.9521 14.6608 13.5108 14.9224 13.0259 15.064C12.541 15.2055 12.0282 15.2223 11.5351 15.1128C11.2642 15.5387 10.8902 15.8894 10.4477 16.1323C10.0053 16.3752 9.50867 16.5026 9.00389 16.5026C8.49912 16.5026 8.00251 16.3752 7.56005 16.1323C7.11759 15.8894 6.74357 15.5387 6.47264 15.1128C5.97977 15.2233 5.46697 15.2076 4.9818 15.0671C4.49663 14.9266 4.05479 14.6658 3.69725 14.309C3.33971 13.9522 3.07804 13.5109 2.93651 13.0261C2.79498 12.5412 2.77818 12.0284 2.88764 11.5353C2.46011 11.2648 2.10796 10.8904 1.86393 10.4472C1.61991 10.004 1.49194 9.50627 1.49194 9.00032C1.49194 8.49436 1.61991 7.99663 1.86393 7.55341C2.10796 7.11019 2.46011 6.73589 2.88764 6.46532Z" fill="#E9EEFF"/>
<path d="M6.75 9L8.25 10.5L11.25 7.5" stroke="#1A43EF" stroke-width="1.5" stroke-linecap="round" stroke-linejoin="round"/>
</svg>
