<svg width="30" height="30" viewBox="0 0 30 30" fill="none" xmlns="http://www.w3.org/2000/svg">
<rect width="30" height="30" rx="15" fill="#1A43EF"/>
<path fill-rule="evenodd" clip-rule="evenodd" d="M23.125 15C23.125 19.4873 19.4873 23.125 15 23.125C13.2701 23.125 11.6664 22.5844 10.3488 21.6628L6.87505 23.1253L8.25776 19.5356C7.38466 18.2402 6.875 16.6796 6.875 15C6.875 10.5127 10.5127 6.875 15 6.875C19.4873 6.875 23.125 10.5127 23.125 15ZM19.0533 17.0189V18.2445C19.0538 18.3583 19.0305 18.4709 18.9849 18.5751C18.9393 18.6794 18.8725 18.773 18.7886 18.8499C18.7048 18.9268 18.6058 18.9854 18.498 19.0218C18.3902 19.0583 18.276 19.0718 18.1627 19.0616C16.9056 18.925 15.6981 18.4954 14.6372 17.8074C13.6501 17.1802 12.8133 16.3433 12.186 15.3562C11.4956 14.2905 11.066 13.0771 10.9319 11.8144C10.9217 11.7014 10.9351 11.5875 10.9713 11.48C11.0075 11.3725 11.0657 11.2737 11.1422 11.19C11.2186 11.1062 11.3117 11.0393 11.4155 10.9934C11.5192 10.9476 11.6314 10.9239 11.7448 10.9238H12.9704C13.1687 10.9218 13.3609 10.992 13.5112 11.1213C13.6615 11.2506 13.7597 11.4301 13.7875 11.6264C13.8392 12.0186 13.9351 12.4037 14.0734 12.7744C14.1284 12.9206 14.1403 13.0795 14.1077 13.2323C14.0751 13.3851 13.9994 13.5253 13.8896 13.6364L13.3708 14.1552C13.9523 15.1779 14.7991 16.0248 15.8219 16.6063L16.3407 16.0875C16.4518 15.9777 16.592 15.902 16.7448 15.8694C16.8976 15.8368 17.0565 15.8487 17.2027 15.9037C17.5733 16.042 17.9584 16.1379 18.3507 16.1896C18.5491 16.2176 18.7303 16.3176 18.8599 16.4705C18.9894 16.6234 19.0583 16.8186 19.0533 17.0189Z" fill="white"/>
</svg>
